# WaveFront *.obj file (generated by Autodesk ATF)

mtllib Offener Deckel.mtl

g Offener Deckel

v -58.900000 -0.900000 49.000000
v -58.900000 88.900001 49.000000
v 0.900000 88.900001 49.000000
v 0.900000 -0.900000 49.000000
v -57.100001 87.100001 49.000000
v -57.100001 0.900000 49.000000
v -0.900000 0.900000 49.000000
v -0.900000 87.100001 49.000000
v -58.900000 -0.900000 46.500000
v -58.900000 88.900001 46.500000
v 0.900000 88.900001 46.500000
v 0.900000 -0.900000 46.500000
v -0.900000 87.100001 46.500000
v -57.100001 87.100001 46.500000
v -0.900000 0.900000 46.500000
v -57.100001 0.900000 46.500000
v -4.500000 16.056007 46.500000
v -4.500000 21.496052 46.500000
v -15.735645 4.500000 46.500000
v -12.139374 4.500000 46.500000
v -4.500000 5.175917 46.500000
v -4.500000 10.615962 46.500000
v -8.543102 4.500000 46.500000
v -4.946831 4.500000 46.500000
v -4.500000 70.456456 46.500000
v -4.500000 75.896501 46.500000
v -51.698358 4.500000 46.500000
v -48.102087 4.500000 46.500000
v -4.500000 59.576366 46.500000
v -4.500000 65.016411 46.500000
v -44.505816 4.500000 46.500000
v -40.909544 4.500000 46.500000
v -4.500000 48.696277 46.500000
v -4.500000 54.136321 46.500000
v -37.313273 4.500000 46.500000
v -33.717002 4.500000 46.500000
v -4.500000 37.816187 46.500000
v -4.500000 43.256232 46.500000
v -30.120730 4.500000 46.500000
v -26.524459 4.500000 46.500000
v -4.500000 26.936097 46.500000
v -4.500000 32.376142 46.500000
v -22.928188 4.500000 46.500000
v -19.331916 4.500000 46.500000
v -53.599999 12.503497 46.500000
v -53.599999 7.063452 46.500000
v -4.500000 81.336546 46.500000
v -4.500000 83.899998 46.500000
v -6.401641 83.899998 46.500000
v -53.599999 23.383587 46.500000
v -53.599999 17.943542 46.500000
v -9.997912 83.899998 46.500000
v -13.594183 83.899998 46.500000
v -53.599999 72.343991 46.500000
v -45.960625 83.899998 46.500000
v -49.556896 83.899998 46.500000
v -53.599999 77.784036 46.500000
v -53.599999 34.263677 46.500000
v -53.599999 28.823632 46.500000
v -17.190454 83.899998 46.500000
v -20.786726 83.899998 46.500000
v -53.599999 61.463901 46.500000
v -38.768082 83.899998 46.500000
v -42.364354 83.899998 46.500000
v -53.599999 66.903946 46.500000
v -53.599999 45.143766 46.500000
v -53.599999 39.703722 46.500000
v -24.382997 83.899998 46.500000
v -27.979268 83.899998 46.500000
v -53.599999 50.583811 46.500000
v -31.575540 83.899998 46.500000
v -35.171811 83.899998 46.500000
v -53.599999 56.023856 46.500000
v -4.500000 16.056007 51.000000
v -12.139374 4.500000 51.000000
v -15.735645 4.500000 51.000000
v -4.500000 21.496052 51.000000
v -0.000000 -2.500000 51.000000
v 0.326315 -2.478612 51.000000
v 0.647048 -2.414815 51.000000
v 0.956709 -2.309699 51.000000
v 1.250000 -2.165063 51.000000
v 1.521904 -1.983383 51.000000
v 1.767767 -1.767767 51.000000
v 1.983383 -1.521904 51.000000
v 2.165063 -1.250000 51.000000
v 2.309699 -0.956709 51.000000
v 2.414815 -0.647048 51.000000
v 2.478612 -0.326315 51.000000
v 2.500000 0.000000 51.000000
v 2.500000 88.399998 51.000000
v 2.478612 88.726313 51.000000
v 2.414815 89.047046 51.000000
v 2.309699 89.356707 51.000000
v 2.165063 89.649998 51.000000
v 1.983383 89.921902 51.000000
v 1.767767 90.167765 51.000000
v 1.521904 90.383381 51.000000
v 1.250000 90.565061 51.000000
v 0.956709 90.709697 51.000000
v 0.647048 90.814813 51.000000
v 0.326315 90.878610 51.000000
v -0.000000 90.899998 51.000000
v -58.099999 90.899998 51.000000
v -58.426314 90.878610 51.000000
v -58.747046 90.814813 51.000000
v -59.056707 90.709697 51.000000
v -59.349999 90.565061 51.000000
v -59.621902 90.383381 51.000000
v -59.867766 90.167765 51.000000
v -60.083382 89.921902 51.000000
v -60.265062 89.649998 51.000000
v -60.409697 89.356707 51.000000
v -60.514813 89.047046 51.000000
v -60.578611 88.726313 51.000000
v -60.599999 88.399998 51.000000
v -60.599999 0.000000 51.000000
v -60.578611 -0.326315 51.000000
v -60.514813 -0.647048 51.000000
v -60.409697 -0.956709 51.000000
v -60.265062 -1.250000 51.000000
v -60.083382 -1.521904 51.000000
v -59.867766 -1.767767 51.000000
v -59.621902 -1.983383 51.000000
v -59.349999 -2.165063 51.000000
v -59.056707 -2.309699 51.000000
v -58.747046 -2.414815 51.000000
v -58.426314 -2.478612 51.000000
v -58.099999 -2.500000 51.000000
v -4.500000 5.175917 51.000000
v -4.946831 4.500000 51.000000
v -8.543102 4.500000 51.000000
v -4.500000 10.615962 51.000000
v -4.500000 70.456456 51.000000
v -48.102087 4.500000 51.000000
v -51.698358 4.500000 51.000000
v -4.500000 75.896501 51.000000
v -4.500000 59.576366 51.000000
v -40.909544 4.500000 51.000000
v -44.505816 4.500000 51.000000
v -4.500000 65.016411 51.000000
v -4.500000 48.696277 51.000000
v -33.717002 4.500000 51.000000
v -37.313273 4.500000 51.000000
v -4.500000 54.136321 51.000000
v -4.500000 37.816187 51.000000
v -26.524459 4.500000 51.000000
v -30.120730 4.500000 51.000000
v -4.500000 43.256232 51.000000
v -4.500000 26.936097 51.000000
v -19.331916 4.500000 51.000000
v -22.928188 4.500000 51.000000
v -4.500000 32.376142 51.000000
v -27.979268 83.899998 51.000000
v -24.382997 83.899998 51.000000
v -53.599999 39.703722 51.000000
v -53.599999 45.143766 51.000000
v -35.171811 83.899998 51.000000
v -31.575540 83.899998 51.000000
v -53.599999 50.583811 51.000000
v -53.599999 56.023856 51.000000
v -17.190454 83.899998 51.000000
v -53.599999 28.823632 51.000000
v -53.599999 34.263677 51.000000
v -20.786726 83.899998 51.000000
v -42.364354 83.899998 51.000000
v -38.768082 83.899998 51.000000
v -53.599999 61.463901 51.000000
v -53.599999 66.903946 51.000000
v -49.556896 83.899998 51.000000
v -45.960625 83.899998 51.000000
v -53.599999 72.343991 51.000000
v -53.599999 77.784036 51.000000
v -9.997912 83.899998 51.000000
v -53.599999 17.943542 51.000000
v -53.599999 23.383587 51.000000
v -13.594183 83.899998 51.000000
v -4.500000 83.899998 51.000000
v -4.500000 81.336546 51.000000
v -53.599999 7.063452 51.000000
v -53.599999 12.503497 51.000000
v -6.401641 83.899998 51.000000
v 2.500000 88.399998 46.500000
v 2.500000 0.000000 46.500000
v 2.478612 -0.326315 46.500000
v 2.414815 -0.647048 46.500000
v 2.309699 -0.956709 46.500000
v 2.165063 -1.250000 46.500000
v 1.983383 -1.521904 46.500000
v 1.767767 -1.767767 46.500000
v 1.521904 -1.983383 46.500000
v 1.250000 -2.165063 46.500000
v 0.956709 -2.309699 46.500000
v 0.647048 -2.414815 46.500000
v 0.326315 -2.478612 46.500000
v -0.000000 -2.500000 46.500000
v -58.099999 -2.500000 46.500000
v -58.426314 -2.478612 46.500000
v -58.747046 -2.414815 46.500000
v -59.056707 -2.309699 46.500000
v -59.349999 -2.165063 46.500000
v -59.621902 -1.983383 46.500000
v -59.867766 -1.767767 46.500000
v -60.083382 -1.521904 46.500000
v -60.265062 -1.250000 46.500000
v -60.409697 -0.956709 46.500000
v -60.514813 -0.647048 46.500000
v -60.578611 -0.326315 46.500000
v -60.599999 0.000000 46.500000
v -60.599999 88.399998 46.500000
v -60.578611 88.726313 46.500000
v -60.514813 89.047046 46.500000
v -60.409697 89.356707 46.500000
v -60.265062 89.649998 46.500000
v -60.083382 89.921902 46.500000
v -59.867766 90.167765 46.500000
v -59.621902 90.383381 46.500000
v -59.349999 90.565061 46.500000
v -59.056707 90.709697 46.500000
v -58.747046 90.814813 46.500000
v -58.426314 90.878610 46.500000
v -58.099999 90.899998 46.500000
v -0.000000 90.899998 46.500000
v 0.326315 90.878610 46.500000
v 0.647048 90.814813 46.500000
v 0.956709 90.709697 46.500000
v 1.250000 90.565061 46.500000
v 1.521904 90.383381 46.500000
v 1.767767 90.167765 46.500000
v 1.983383 89.921902 46.500000
v 2.165063 89.649998 46.500000
v 2.309699 89.356707 46.500000
v 2.414815 89.047046 46.500000
v 2.478612 88.726313 46.500000
vt 2.990000 4.490000 0.000000
vt 2.810000 4.310000 0.000000
vt 2.990000 -4.490000 0.000000
vt 2.810000 -4.310000 0.000000
vt -2.990000 -4.490000 0.000000
vt -2.810000 -4.310000 0.000000
vt -2.810000 4.310000 0.000000
vt -2.990000 4.490000 0.000000
vt 0.100000 1.910000 0.000000
vt -8.880000 1.910000 0.000000
vt 0.100000 1.660000 0.000000
vt -8.880000 1.660000 0.000000
vt -5.880000 1.660000 0.000000
vt 0.100000 1.660000 0.000000
vt -5.880000 1.910000 0.000000
vt 0.100000 1.910000 0.000000
vt -8.880000 1.660000 0.000000
vt 0.100000 1.660000 0.000000
vt -8.880000 1.910000 0.000000
vt 0.100000 1.910000 0.000000
vt -5.880000 1.660000 0.000000
vt 0.100000 1.660000 0.000000
vt -5.880000 1.910000 0.000000
vt 0.100000 1.910000 0.000000
vt -5.620000 1.660000 0.000000
vt -0.000000 1.660000 0.000000
vt -5.620000 1.910000 0.000000
vt -0.000000 1.910000 0.000000
vt -8.620000 1.660000 0.000000
vt 0.000000 1.660000 0.000000
vt -8.620000 1.910000 0.000000
vt 0.000000 1.910000 0.000000
vt -5.620000 1.660000 0.000000
vt 0.000000 1.660000 0.000000
vt -5.620000 1.910000 0.000000
vt 0.000000 1.910000 0.000000
vt -8.620000 1.660000 0.000000
vt 0.000000 1.660000 0.000000
vt -8.620000 1.910000 0.000000
vt -0.000000 1.910000 0.000000
vt -2.805000 4.330000 0.000000
vt -0.107073 3.970000 0.000000
vt 2.815000 4.330000 0.000000
vt 0.252554 3.970000 0.000000
vt 0.612181 3.970000 0.000000
vt 2.455000 0.638381 0.000000
vt 2.455000 1.182386 0.000000
vt 2.455000 1.726390 0.000000
vt 2.455000 2.270395 0.000000
vt 1.331435 3.970000 0.000000
vt -2.805000 -4.290000 0.000000
vt -2.455000 -0.094377 0.000000
vt -2.455000 0.449628 0.000000
vt -2.455000 0.993632 0.000000
vt 0.466700 -3.970000 0.000000
vt 0.826327 -3.970000 0.000000
vt 2.815000 -4.290000 0.000000
vt 1.185954 -3.970000 0.000000
vt 1.545582 -3.970000 0.000000
vt -2.455000 2.081641 0.000000
vt 0.107073 -3.970000 0.000000
vt -0.252554 -3.970000 0.000000
vt -0.612181 -3.970000 0.000000
vt 2.455000 0.094377 0.000000
vt 2.455000 -0.449628 0.000000
vt 2.455000 -0.993632 0.000000
vt 2.455000 2.814399 0.000000
vt 2.455000 3.358404 0.000000
vt 2.050690 3.970000 0.000000
vt 1.691063 3.970000 0.000000
vt 0.971808 3.970000 0.000000
vt 2.410317 3.970000 0.000000
vt 2.455000 3.902408 0.000000
vt 2.455000 -3.169650 0.000000
vt 2.455000 -2.625646 0.000000
vt 2.455000 -2.081641 0.000000
vt -1.545582 3.970000 0.000000
vt -2.264836 3.970000 0.000000
vt -2.455000 3.713655 0.000000
vt 2.455000 -3.713655 0.000000
vt 2.455000 -3.970000 0.000000
vt 2.264836 -3.970000 0.000000
vt -1.905209 3.970000 0.000000
vt 2.455000 -1.537637 0.000000
vt -0.826327 3.970000 0.000000
vt -1.185954 3.970000 0.000000
vt -0.466700 3.970000 0.000000
vt -2.455000 3.169650 0.000000
vt -2.455000 2.625646 0.000000
vt 1.905209 -3.970000 0.000000
vt -2.455000 1.537637 0.000000
vt -1.691063 -3.970000 0.000000
vt -2.455000 -2.270395 0.000000
vt -2.455000 -2.814399 0.000000
vt -2.455000 -3.358404 0.000000
vt -2.050690 -3.970000 0.000000
vt -1.331435 -3.970000 0.000000
vt -0.971808 -3.970000 0.000000
vt -2.455000 -1.182386 0.000000
vt -2.455000 -1.726390 0.000000
vt -2.455000 -0.638381 0.000000
vt -1.691063 3.970000 0.000000
vt -2.455000 3.358404 0.000000
vt -2.455000 2.814399 0.000000
vt -3.155000 4.420000 0.000000
vt -2.455000 2.270395 0.000000
vt -2.455000 1.726390 0.000000
vt -0.971808 3.970000 0.000000
vt -1.331435 3.970000 0.000000
vt -2.905000 4.670000 0.000000
vt -2.050690 3.970000 0.000000
vt -2.937631 4.667861 0.000000
vt -2.455000 3.902408 0.000000
vt -2.410317 3.970000 0.000000
vt -2.969705 4.661481 0.000000
vt -3.000671 4.650970 0.000000
vt -3.030000 4.636506 0.000000
vt -3.057190 4.618338 0.000000
vt -3.081777 4.596777 0.000000
vt -3.103338 4.572190 0.000000
vt -3.121506 4.545000 0.000000
vt -3.135970 4.515671 0.000000
vt -3.146481 4.484705 0.000000
vt -3.152861 4.452631 0.000000
vt -3.155000 -4.420000 0.000000
vt -2.455000 0.094377 0.000000
vt -2.455000 0.638381 0.000000
vt -2.455000 1.182386 0.000000
vt -0.252554 3.970000 0.000000
vt -0.612181 3.970000 0.000000
vt -3.152861 -4.452631 0.000000
vt -3.146481 -4.484705 0.000000
vt -3.135970 -4.515671 0.000000
vt -3.121506 -4.545000 0.000000
vt -3.103338 -4.572190 0.000000
vt -3.081777 -4.596777 0.000000
vt -3.057190 -4.618338 0.000000
vt -3.030000 -4.636506 0.000000
vt -3.000671 -4.650970 0.000000
vt -2.969705 -4.661481 0.000000
vt -2.937631 -4.667861 0.000000
vt -2.905000 -4.670000 0.000000
vt -2.455000 -3.970000 0.000000
vt -2.264836 -3.970000 0.000000
vt -1.905209 -3.970000 0.000000
vt 2.455000 2.625646 0.000000
vt 2.905000 -4.670000 0.000000
vt -0.107073 -3.970000 0.000000
vt -0.466700 -3.970000 0.000000
vt -0.826327 -3.970000 0.000000
vt 2.455000 0.449628 0.000000
vt 2.455000 0.993632 0.000000
vt 3.155000 4.420000 0.000000
vt 2.455000 1.537637 0.000000
vt 2.455000 2.081641 0.000000
vt -1.545582 -3.970000 0.000000
vt 2.937631 -4.667861 0.000000
vt 3.155000 -4.420000 0.000000
vt 2.455000 -3.358404 0.000000
vt 2.050690 -3.970000 0.000000
vt 2.969705 -4.661481 0.000000
vt 3.000671 -4.650970 0.000000
vt 3.030000 -4.636506 0.000000
vt 3.057190 -4.618338 0.000000
vt 3.081777 -4.596777 0.000000
vt 3.103338 -4.572190 0.000000
vt 3.121506 -4.545000 0.000000
vt 3.135970 -4.515671 0.000000
vt 3.146481 -4.484705 0.000000
vt 3.152861 -4.452631 0.000000
vt 2.455000 -0.094377 0.000000
vt 2.455000 -0.638381 0.000000
vt 2.455000 -1.182386 0.000000
vt 3.152861 4.452631 0.000000
vt 3.146481 4.484705 0.000000
vt 3.135970 4.515671 0.000000
vt 3.121506 4.545000 0.000000
vt 3.103338 4.572190 0.000000
vt 3.081777 4.596777 0.000000
vt 3.057190 4.618338 0.000000
vt 3.030000 4.636506 0.000000
vt 3.000671 4.650970 0.000000
vt 2.969705 4.661481 0.000000
vt 2.937631 4.667861 0.000000
vt 2.905000 4.670000 0.000000
vt 2.455000 3.713655 0.000000
vt 2.264836 3.970000 0.000000
vt -2.455000 -3.169650 0.000000
vt 0.107073 3.970000 0.000000
vt 0.466700 3.970000 0.000000
vt 0.826327 3.970000 0.000000
vt 1.905209 3.970000 0.000000
vt -2.455000 -2.081641 0.000000
vt -2.455000 -2.625646 0.000000
vt -2.455000 -3.713655 0.000000
vt 1.545582 3.970000 0.000000
vt 1.185954 3.970000 0.000000
vt -2.455000 -0.993632 0.000000
vt -2.455000 -1.537637 0.000000
vt -2.455000 -0.449628 0.000000
vt 0.252554 -3.970000 0.000000
vt 0.612181 -3.970000 0.000000
vt 0.971808 -3.970000 0.000000
vt 2.455000 -1.726390 0.000000
vt -1.185954 -3.970000 0.000000
vt 1.331435 -3.970000 0.000000
vt 1.691063 -3.970000 0.000000
vt 2.455000 -2.814399 0.000000
vt 2.455000 -2.270395 0.000000
vt 2.455000 3.169650 0.000000
vt 0.200000 6.830592 0.000000
vt -0.250000 6.830592 0.000000
vt 0.200000 6.286588 0.000000
vt -0.250000 6.286588 0.000000
vt 0.200000 0.302538 0.000000
vt -0.250000 0.302538 0.000000
vt 0.200000 -0.241466 0.000000
vt -0.250000 -0.241466 0.000000
vt 0.200000 5.742583 0.000000
vt -0.250000 5.742583 0.000000
vt 0.200000 5.198579 0.000000
vt -0.250000 5.198579 0.000000
vt 0.200000 1.390547 0.000000
vt -0.250000 1.390547 0.000000
vt 0.200000 0.846543 0.000000
vt -0.250000 0.846543 0.000000
vt 0.200000 4.654574 0.000000
vt -0.250000 4.654574 0.000000
vt 0.200000 4.110570 0.000000
vt -0.250000 4.110570 0.000000
vt 0.200000 2.478556 0.000000
vt -0.250000 2.478556 0.000000
vt 0.200000 1.934552 0.000000
vt -0.250000 1.934552 0.000000
vt -2.985000 4.510000 0.000000
vt -3.155000 4.420000 0.000000
vt -2.985000 -4.470000 0.000000
vt -3.155000 -4.420000 0.000000
vt -3.152861 -4.452631 0.000000
vt 2.995000 4.510000 0.000000
vt 2.905000 4.670000 0.000000
vt -2.905000 4.670000 0.000000
vt -2.937631 4.667861 0.000000
vt 2.995000 -4.470000 0.000000
vt 3.155000 4.420000 0.000000
vt 3.152861 4.452631 0.000000
vt 3.146481 4.484705 0.000000
vt 2.905000 -4.670000 0.000000
vt 2.937631 -4.667861 0.000000
vt 2.969705 -4.661481 0.000000
vt 3.152861 -4.452631 0.000000
vt 3.155000 -4.420000 0.000000
vt 3.135970 4.515671 0.000000
vt 3.121506 4.545000 0.000000
vt 3.103338 4.572190 0.000000
vt 3.081777 4.596777 0.000000
vt 3.057190 4.618338 0.000000
vt 3.030000 4.636506 0.000000
vt 3.000671 4.650970 0.000000
vt 2.969705 4.661481 0.000000
vt 2.937631 4.667861 0.000000
vt -2.969705 4.661481 0.000000
vt -3.000671 4.650970 0.000000
vt -3.030000 4.636506 0.000000
vt -3.057190 4.618338 0.000000
vt -3.081777 4.596777 0.000000
vt -3.103338 4.572190 0.000000
vt -3.121506 4.545000 0.000000
vt -3.135970 4.515671 0.000000
vt -3.146481 4.484705 0.000000
vt -3.152861 4.452631 0.000000
vt -3.146481 -4.484705 0.000000
vt -3.135970 -4.515671 0.000000
vt -3.121506 -4.545000 0.000000
vt -3.103338 -4.572190 0.000000
vt -3.081777 -4.596777 0.000000
vt -3.057190 -4.618338 0.000000
vt -3.030000 -4.636506 0.000000
vt -3.000671 -4.650970 0.000000
vt -2.969705 -4.661481 0.000000
vt -2.937631 -4.667861 0.000000
vt -2.905000 -4.670000 0.000000
vt 3.000671 -4.650970 0.000000
vt 3.030000 -4.636506 0.000000
vt 3.057190 -4.618338 0.000000
vt 3.081777 -4.596777 0.000000
vt 3.103338 -4.572190 0.000000
vt 3.121506 -4.545000 0.000000
vt 3.135970 -4.515671 0.000000
vt 3.146481 -4.484705 0.000000
vt -1.639829 -0.250000 0.000000
vt -0.906674 -0.250000 0.000000
vt -1.639829 0.200000 0.000000
vt -0.906674 0.200000 0.000000
vt -0.250000 1.306294 0.000000
vt 0.200000 1.306294 0.000000
vt -0.250000 1.665921 0.000000
vt 0.200000 1.665921 0.000000
vt -0.250000 2.025548 0.000000
vt 0.200000 2.025548 0.000000
vt -0.250000 2.385175 0.000000
vt 0.200000 2.385175 0.000000
vt 0.200000 3.104429 0.000000
vt -0.250000 3.104429 0.000000
vt 0.200000 2.744802 0.000000
vt -0.250000 2.744802 0.000000
vt 0.200000 3.823684 0.000000
vt -0.250000 3.823684 0.000000
vt 0.200000 3.464057 0.000000
vt -0.250000 3.464057 0.000000
vt -0.250000 0.587039 0.000000
vt 0.200000 0.587039 0.000000
vt -0.250000 0.946667 0.000000
vt 0.200000 0.946667 0.000000
vt 0.200000 4.373475 0.000000
vt -0.250000 4.373475 0.000000
vt 0.200000 4.183311 0.000000
vt -0.250000 4.183311 0.000000
vt -9.465380 -0.250000 0.000000
vt -0.906674 -0.250000 0.000000
vt -9.465380 0.200000 0.000000
vt -0.906674 0.200000 0.000000
vt -0.599379 0.200000 0.000000
vt -3.288922 0.200000 0.000000
vt -0.599379 -0.250000 0.000000
vt -3.288922 -0.250000 0.000000
vt -8.161122 -0.250000 0.000000
vt -0.906674 -0.250000 0.000000
vt -8.161122 0.200000 0.000000
vt -0.906674 0.200000 0.000000
vt -6.856863 -0.250000 0.000000
vt -0.906674 -0.250000 0.000000
vt -6.856863 0.200000 0.000000
vt -0.906674 0.200000 0.000000
vt -5.552605 -0.250000 0.000000
vt -0.906674 -0.250000 0.000000
vt -5.552605 0.200000 0.000000
vt -0.906674 0.200000 0.000000
vt 0.200000 0.963937 0.000000
vt -0.250000 0.963937 0.000000
vt 0.200000 0.604310 0.000000
vt -0.250000 0.604310 0.000000
vt 0.450000 6.481861 0.000000
vt 0.000000 6.481861 0.000000
vt 0.450000 6.225516 0.000000
vt 0.000000 6.225516 0.000000
vt 0.000000 5.137507 0.000000
vt 0.450000 5.137507 0.000000
vt 0.000000 5.681511 0.000000
vt 0.450000 5.681511 0.000000
vt 0.000000 4.049498 0.000000
vt 0.450000 4.049498 0.000000
vt 0.000000 4.593502 0.000000
vt 0.450000 4.593502 0.000000
vt 0.000000 2.961489 0.000000
vt 0.450000 2.961489 0.000000
vt 0.000000 3.505493 0.000000
vt 0.450000 3.505493 0.000000
vt 0.000000 1.873480 0.000000
vt 0.450000 1.873480 0.000000
vt 0.000000 2.417484 0.000000
vt 0.450000 2.417484 0.000000
vt 0.000000 0.785471 0.000000
vt 0.450000 0.785471 0.000000
vt 0.000000 1.329475 0.000000
vt 0.450000 1.329475 0.000000
vt -0.906674 0.200000 0.000000
vt -3.596217 0.200000 0.000000
vt -0.906674 -0.250000 0.000000
vt -3.596217 -0.250000 0.000000
vt -0.906674 0.200000 0.000000
vt -4.900476 0.200000 0.000000
vt -0.906674 -0.250000 0.000000
vt -4.900476 -0.250000 0.000000
vt -0.906674 0.200000 0.000000
vt -6.204734 0.200000 0.000000
vt -0.906674 -0.250000 0.000000
vt -6.204734 -0.250000 0.000000
vt -0.906674 0.200000 0.000000
vt -7.508993 0.200000 0.000000
vt -0.906674 -0.250000 0.000000
vt -7.508993 -0.250000 0.000000
vt -0.906674 0.200000 0.000000
vt -8.813251 0.200000 0.000000
vt -0.906674 -0.250000 0.000000
vt -8.813251 -0.250000 0.000000
vt -0.906674 0.200000 0.000000
vt -9.810214 0.200000 0.000000
vt -0.906674 -0.250000 0.000000
vt -9.810214 -0.250000 0.000000
vt 0.250000 -6.440395 0.000000
vt -0.200000 -6.440395 0.000000
vt 0.250000 -6.984399 0.000000
vt -0.200000 -6.984399 0.000000
vt 0.250000 -7.528404 0.000000
vt -0.200000 -7.528404 0.000000
vt 0.250000 -8.072408 0.000000
vt -0.200000 -8.072408 0.000000
vt 0.000000 4.088113 0.000000
vt 0.450000 4.088113 0.000000
vt 0.000000 4.447740 0.000000
vt 0.450000 4.447740 0.000000
vt 0.000000 3.368859 0.000000
vt 0.450000 3.368859 0.000000
vt 0.000000 3.728486 0.000000
vt 0.450000 3.728486 0.000000
vt 0.000000 2.649605 0.000000
vt 0.450000 2.649605 0.000000
vt 0.000000 3.009232 0.000000
vt 0.450000 3.009232 0.000000
vt 0.000000 1.930350 0.000000
vt 0.450000 1.930350 0.000000
vt 0.000000 2.289978 0.000000
vt 0.450000 2.289978 0.000000
vt 0.000000 1.211096 0.000000
vt 0.450000 1.211096 0.000000
vt 0.000000 1.570723 0.000000
vt 0.450000 1.570723 0.000000
vt 0.000000 0.491842 0.000000
vt 0.450000 0.491842 0.000000
vt 0.000000 0.851469 0.000000
vt 0.450000 0.851469 0.000000
vt -7.853826 -0.250000 0.000000
vt -0.599379 -0.250000 0.000000
vt -7.853826 0.200000 0.000000
vt -0.599379 0.200000 0.000000
vt -6.549568 -0.250000 0.000000
vt -0.599379 -0.250000 0.000000
vt -6.549568 0.200000 0.000000
vt -0.599379 0.200000 0.000000
vt -5.245309 -0.250000 0.000000
vt -0.599379 -0.250000 0.000000
vt -5.245309 0.200000 0.000000
vt -0.599379 0.200000 0.000000
vt -3.941051 -0.250000 0.000000
vt -0.599379 -0.250000 0.000000
vt -3.941051 0.200000 0.000000
vt -0.599379 0.200000 0.000000
vt -2.636792 -0.250000 0.000000
vt -0.599379 -0.250000 0.000000
vt -2.636792 0.200000 0.000000
vt -0.599379 0.200000 0.000000
vt -1.332534 -0.250000 0.000000
vt -0.599379 -0.250000 0.000000
vt -1.332534 0.200000 0.000000
vt -0.599379 0.200000 0.000000
vt -0.200000 -4.919836 0.000000
vt 0.250000 -4.919836 0.000000
vt -0.200000 -4.560209 0.000000
vt 0.250000 -4.560209 0.000000
vt -9.158085 -0.250000 0.000000
vt -0.599379 -0.250000 0.000000
vt -9.158085 0.200000 0.000000
vt -0.599379 0.200000 0.000000
vt 0.200000 3.566565 0.000000
vt -0.250000 3.566565 0.000000
vt 0.200000 3.022561 0.000000
vt -0.250000 3.022561 0.000000
vt -0.599379 0.200000 0.000000
vt -4.593180 0.200000 0.000000
vt -0.599379 -0.250000 0.000000
vt -4.593180 -0.250000 0.000000
vt -0.599379 0.200000 0.000000
vt -1.984663 0.200000 0.000000
vt -0.599379 -0.250000 0.000000
vt -1.984663 -0.250000 0.000000
vt 0.250000 1.600000 0.000000
vt 9.090000 1.600000 0.000000
vt 0.250000 2.050000 0.000000
vt 9.090000 2.050000 0.000000
vt 2.050000 0.196350 0.000000
vt 1.600000 0.196350 0.000000
vt 2.050000 0.163625 0.000000
vt 1.600000 0.163625 0.000000
vt 2.050000 0.130900 0.000000
vt 1.600000 0.130900 0.000000
vt 2.050000 0.098175 0.000000
vt 1.600000 0.098175 0.000000
vt 2.050000 0.065450 0.000000
vt 1.600000 0.065450 0.000000
vt 2.050000 0.032725 0.000000
vt 1.600000 0.032725 0.000000
vt 2.050000 -0.000000 0.000000
vt 1.600000 -0.000000 0.000000
vt 2.050000 -0.032725 0.000000
vt 1.600000 -0.032725 0.000000
vt 2.050000 -0.065450 0.000000
vt 1.600000 -0.065450 0.000000
vt 2.050000 -0.098175 0.000000
vt 1.600000 -0.098175 0.000000
vt 2.050000 -0.130900 0.000000
vt 1.600000 -0.130900 0.000000
vt 2.050000 -0.163625 0.000000
vt 1.600000 -0.163625 0.000000
vt 2.050000 -0.196350 0.000000
vt 1.600000 -0.196350 0.000000
vt 0.250000 1.600000 0.000000
vt 6.060000 1.600000 0.000000
vt 0.250000 2.050000 0.000000
vt 6.060000 2.050000 0.000000
vt -2.050000 -0.196350 0.000000
vt -1.600000 -0.196350 0.000000
vt -2.050000 -0.163625 0.000000
vt -1.600000 -0.163625 0.000000
vt -2.050000 -0.130900 0.000000
vt -1.600000 -0.130900 0.000000
vt -2.050000 -0.098175 0.000000
vt -1.600000 -0.098175 0.000000
vt -2.050000 -0.065450 0.000000
vt -1.600000 -0.065450 0.000000
vt -2.050000 -0.032725 0.000000
vt -1.600000 -0.032725 0.000000
vt -2.050000 0.000000 0.000000
vt -1.600000 0.000000 0.000000
vt -2.050000 0.032725 0.000000
vt -1.600000 0.032725 0.000000
vt -2.050000 0.065450 0.000000
vt -1.600000 0.065450 0.000000
vt -2.050000 0.098175 0.000000
vt -1.600000 0.098175 0.000000
vt -2.050000 0.130900 0.000000
vt -1.600000 0.130900 0.000000
vt -2.050000 0.163625 0.000000
vt -1.600000 0.163625 0.000000
vt -2.050000 0.196350 0.000000
vt -1.600000 0.196350 0.000000
vt 0.250000 1.600000 0.000000
vt 9.090000 1.600000 0.000000
vt 0.250000 2.050000 0.000000
vt 9.090000 2.050000 0.000000
vt -2.944088 -0.250000 0.000000
vt -0.906674 -0.250000 0.000000
vt -2.944088 0.200000 0.000000
vt -0.906674 0.200000 0.000000
vt -4.248346 -0.250000 0.000000
vt -0.906674 -0.250000 0.000000
vt -4.248346 0.200000 0.000000
vt -0.906674 0.200000 0.000000
vt -0.599379 0.200000 0.000000
vt -7.201697 0.200000 0.000000
vt -0.599379 -0.250000 0.000000
vt -7.201697 -0.250000 0.000000
vt -0.599379 0.200000 0.000000
vt -5.897439 0.200000 0.000000
vt -0.599379 -0.250000 0.000000
vt -5.897439 -0.250000 0.000000
vt -0.599379 0.200000 0.000000
vt -8.505956 0.200000 0.000000
vt -0.599379 -0.250000 0.000000
vt -8.505956 -0.250000 0.000000
vt -0.906674 0.200000 0.000000
vt -2.291959 0.200000 0.000000
vt -0.906674 -0.250000 0.000000
vt -2.291959 -0.250000 0.000000
vt -0.906674 0.200000 0.000000
vt -0.987700 0.200000 0.000000
vt -0.906674 -0.250000 0.000000
vt -0.987700 -0.250000 0.000000
vt -2.050000 -0.196350 0.000000
vt -1.600000 -0.196350 0.000000
vt -2.050000 -0.163625 0.000000
vt -1.600000 -0.163625 0.000000
vt -2.050000 -0.130900 0.000000
vt -1.600000 -0.130900 0.000000
vt -2.050000 -0.098175 0.000000
vt -1.600000 -0.098175 0.000000
vt -2.050000 -0.065450 0.000000
vt -1.600000 -0.065450 0.000000
vt -2.050000 -0.032725 0.000000
vt -1.600000 -0.032725 0.000000
vt -2.050000 -0.000000 0.000000
vt -1.600000 -0.000000 0.000000
vt -2.050000 0.032725 0.000000
vt -1.600000 0.032725 0.000000
vt -2.050000 0.065450 0.000000
vt -1.600000 0.065450 0.000000
vt -2.050000 0.098175 0.000000
vt -1.600000 0.098175 0.000000
vt -2.050000 0.130900 0.000000
vt -1.600000 0.130900 0.000000
vt -2.050000 0.163625 0.000000
vt -1.600000 0.163625 0.000000
vt -2.050000 0.196350 0.000000
vt -1.600000 0.196350 0.000000
vt -2.050000 -0.196350 0.000000
vt -1.600000 -0.196350 0.000000
vt -2.050000 -0.163625 0.000000
vt -1.600000 -0.163625 0.000000
vt -2.050000 -0.130900 0.000000
vt -1.600000 -0.130900 0.000000
vt -2.050000 -0.098175 0.000000
vt -1.600000 -0.098175 0.000000
vt -2.050000 -0.065450 0.000000
vt -1.600000 -0.065450 0.000000
vt -2.050000 -0.032725 0.000000
vt -1.600000 -0.032725 0.000000
vt -2.050000 0.000000 0.000000
vt -1.600000 0.000000 0.000000
vt -2.050000 0.032725 0.000000
vt -1.600000 0.032725 0.000000
vt -2.050000 0.065450 0.000000
vt -1.600000 0.065450 0.000000
vt -2.050000 0.098175 0.000000
vt -1.600000 0.098175 0.000000
vt -2.050000 0.130900 0.000000
vt -1.600000 0.130900 0.000000
vt -2.050000 0.163625 0.000000
vt -1.600000 0.163625 0.000000
vt -2.050000 0.196350 0.000000
vt -1.600000 0.196350 0.000000
vt 0.250000 1.600000 0.000000
vt 6.060000 1.600000 0.000000
vt 0.250000 2.050000 0.000000
vt 6.060000 2.050000 0.000000
vn 0.000000 0.000000 -0.100000
vn 0.000000 0.000000 -0.100000
vn 0.000000 0.000000 -0.100000
vn 0.000000 0.000000 -0.100000
vn 0.000000 0.000000 -0.100000
vn 0.000000 0.000000 -0.100000
vn 0.000000 0.000000 -0.100000
vn 0.000000 0.000000 -0.100000
vn 0.100000 0.000000 0.000000
vn 0.100000 0.000000 0.000000
vn 0.100000 0.000000 0.000000
vn 0.100000 0.000000 0.000000
vn 0.000000 -0.100000 0.000000
vn 0.000000 -0.100000 0.000000
vn 0.000000 -0.100000 0.000000
vn 0.000000 -0.100000 0.000000
vn -0.100000 0.000000 0.000000
vn -0.100000 0.000000 0.000000
vn -0.100000 0.000000 0.000000
vn -0.100000 0.000000 0.000000
vn -0.000000 0.100000 -0.000000
vn -0.000000 0.100000 -0.000000
vn -0.000000 0.100000 -0.000000
vn -0.000000 0.100000 -0.000000
vn -0.000000 0.100000 -0.000000
vn -0.000000 0.100000 -0.000000
vn -0.000000 0.100000 -0.000000
vn -0.000000 0.100000 -0.000000
vn 0.100000 0.000000 0.000000
vn 0.100000 0.000000 0.000000
vn 0.100000 0.000000 0.000000
vn 0.100000 0.000000 0.000000
vn 0.000000 -0.100000 0.000000
vn 0.000000 -0.100000 0.000000
vn 0.000000 -0.100000 0.000000
vn 0.000000 -0.100000 0.000000
vn -0.100000 0.000000 0.000000
vn -0.100000 0.000000 0.000000
vn -0.100000 0.000000 0.000000
vn -0.100000 0.000000 0.000000
vn 0.000000 0.000000 -0.100000
vn 0.000000 0.000000 -0.100000
vn 0.000000 0.000000 -0.100000
vn 0.000000 0.000000 -0.100000
vn 0.000000 0.000000 -0.100000
vn 0.000000 0.000000 -0.100000
vn 0.000000 0.000000 -0.100000
vn 0.000000 0.000000 -0.100000
vn 0.000000 0.000000 -0.100000
vn 0.000000 0.000000 -0.100000
vn 0.000000 0.000000 -0.100000
vn 0.000000 0.000000 -0.100000
vn 0.000000 0.000000 -0.100000
vn 0.000000 0.000000 -0.100000
vn 0.000000 0.000000 -0.100000
vn 0.000000 0.000000 -0.100000
vn 0.000000 0.000000 -0.100000
vn 0.000000 0.000000 -0.100000
vn 0.000000 0.000000 -0.100000
vn 0.000000 0.000000 -0.100000
vn 0.000000 0.000000 -0.100000
vn 0.000000 0.000000 -0.100000
vn 0.000000 0.000000 -0.100000
vn 0.000000 0.000000 -0.100000
vn 0.000000 0.000000 -0.100000
vn 0.000000 0.000000 -0.100000
vn 0.000000 0.000000 -0.100000
vn 0.000000 0.000000 -0.100000
vn 0.000000 0.000000 -0.100000
vn 0.000000 0.000000 -0.100000
vn 0.000000 0.000000 -0.100000
vn 0.000000 0.000000 -0.100000
vn 0.000000 0.000000 -0.100000
vn 0.000000 0.000000 -0.100000
vn 0.000000 0.000000 -0.100000
vn 0.000000 0.000000 -0.100000
vn 0.000000 0.000000 -0.100000
vn 0.000000 0.000000 -0.100000
vn 0.000000 0.000000 -0.100000
vn 0.000000 0.000000 -0.100000
vn 0.000000 0.000000 -0.100000
vn 0.000000 0.000000 -0.100000
vn 0.000000 0.000000 -0.100000
vn 0.000000 0.000000 -0.100000
vn 0.000000 0.000000 -0.100000
vn 0.000000 0.000000 -0.100000
vn 0.000000 0.000000 -0.100000
vn 0.000000 0.000000 -0.100000
vn 0.000000 0.000000 -0.100000
vn 0.000000 0.000000 -0.100000
vn 0.000000 0.000000 -0.100000
vn 0.000000 0.000000 -0.100000
vn 0.000000 0.000000 -0.100000
vn 0.000000 0.000000 -0.100000
vn 0.000000 0.000000 -0.100000
vn 0.000000 0.000000 -0.100000
vn 0.000000 0.000000 -0.100000
vn 0.000000 0.000000 -0.100000
vn 0.000000 0.000000 -0.100000
vn 0.000000 0.000000 -0.100000
vn 0.000000 0.000000 -0.100000
vn 0.000000 0.000000 0.100000
vn 0.000000 0.000000 0.100000
vn 0.000000 0.000000 0.100000
vn 0.000000 0.000000 0.100000
vn 0.000000 0.000000 0.100000
vn 0.000000 0.000000 0.100000
vn 0.000000 0.000000 0.100000
vn 0.000000 0.000000 0.100000
vn 0.000000 0.000000 0.100000
vn 0.000000 0.000000 0.100000
vn 0.000000 0.000000 0.100000
vn 0.000000 0.000000 0.100000
vn 0.000000 0.000000 0.100000
vn 0.000000 0.000000 0.100000
vn 0.000000 0.000000 0.100000
vn 0.000000 0.000000 0.100000
vn 0.000000 0.000000 0.100000
vn 0.000000 0.000000 0.100000
vn 0.000000 0.000000 0.100000
vn 0.000000 0.000000 0.100000
vn 0.000000 0.000000 0.100000
vn 0.000000 0.000000 0.100000
vn 0.000000 0.000000 0.100000
vn 0.000000 0.000000 0.100000
vn 0.000000 0.000000 0.100000
vn 0.000000 0.000000 0.100000
vn 0.000000 0.000000 0.100000
vn 0.000000 0.000000 0.100000
vn 0.000000 0.000000 0.100000
vn 0.000000 0.000000 0.100000
vn 0.000000 0.000000 0.100000
vn 0.000000 0.000000 0.100000
vn 0.000000 0.000000 0.100000
vn 0.000000 0.000000 0.100000
vn 0.000000 0.000000 0.100000
vn 0.000000 0.000000 0.100000
vn 0.000000 0.000000 0.100000
vn 0.000000 0.000000 0.100000
vn 0.000000 0.000000 0.100000
vn 0.000000 0.000000 0.100000
vn 0.000000 0.000000 0.100000
vn 0.000000 0.000000 0.100000
vn 0.000000 0.000000 0.100000
vn 0.000000 0.000000 0.100000
vn 0.000000 0.000000 0.100000
vn 0.000000 0.000000 0.100000
vn 0.000000 0.000000 0.100000
vn 0.000000 0.000000 0.100000
vn 0.000000 0.000000 0.100000
vn 0.000000 0.000000 0.100000
vn 0.000000 0.000000 0.100000
vn 0.000000 0.000000 0.100000
vn 0.000000 0.000000 0.100000
vn 0.000000 0.000000 0.100000
vn 0.000000 0.000000 0.100000
vn 0.000000 0.000000 0.100000
vn 0.000000 0.000000 0.100000
vn 0.000000 0.000000 0.100000
vn 0.000000 0.000000 0.100000
vn 0.000000 0.000000 0.100000
vn 0.000000 0.000000 0.100000
vn 0.000000 0.000000 0.100000
vn 0.000000 0.000000 0.100000
vn 0.000000 0.000000 0.100000
vn 0.000000 0.000000 0.100000
vn 0.000000 0.000000 0.100000
vn 0.000000 0.000000 0.100000
vn 0.000000 0.000000 0.100000
vn 0.000000 0.000000 0.100000
vn 0.000000 0.000000 0.100000
vn 0.000000 0.000000 0.100000
vn 0.000000 0.000000 0.100000
vn 0.000000 0.000000 0.100000
vn 0.000000 0.000000 0.100000
vn 0.000000 0.000000 0.100000
vn 0.000000 0.000000 0.100000
vn 0.000000 0.000000 0.100000
vn 0.000000 0.000000 0.100000
vn 0.000000 0.000000 0.100000
vn 0.000000 0.000000 0.100000
vn 0.000000 0.000000 0.100000
vn 0.000000 0.000000 0.100000
vn 0.000000 0.000000 0.100000
vn 0.000000 0.000000 0.100000
vn 0.000000 0.000000 0.100000
vn 0.000000 0.000000 0.100000
vn 0.000000 0.000000 0.100000
vn 0.000000 0.000000 0.100000
vn 0.000000 0.000000 0.100000
vn 0.000000 0.000000 0.100000
vn 0.000000 0.000000 0.100000
vn 0.000000 0.000000 0.100000
vn 0.000000 0.000000 0.100000
vn 0.000000 0.000000 0.100000
vn 0.000000 0.000000 0.100000
vn 0.000000 0.000000 0.100000
vn 0.000000 0.000000 0.100000
vn 0.000000 0.000000 0.100000
vn 0.000000 0.000000 0.100000
vn 0.000000 0.000000 0.100000
vn 0.000000 0.000000 0.100000
vn 0.000000 0.000000 0.100000
vn 0.000000 0.000000 0.100000
vn 0.000000 0.000000 0.100000
vn 0.000000 0.000000 0.100000
vn 0.000000 0.000000 0.100000
vn 0.000000 0.000000 0.100000
vn 0.000000 0.000000 0.100000
vn 0.000000 0.000000 0.100000
vn 0.100000 0.000000 0.000000
vn 0.100000 0.000000 0.000000
vn 0.100000 0.000000 0.000000
vn 0.100000 0.000000 0.000000
vn 0.100000 0.000000 0.000000
vn 0.100000 0.000000 0.000000
vn 0.100000 0.000000 0.000000
vn 0.100000 0.000000 0.000000
vn 0.100000 0.000000 0.000000
vn 0.100000 0.000000 0.000000
vn 0.100000 0.000000 0.000000
vn 0.100000 0.000000 0.000000
vn 0.100000 0.000000 0.000000
vn 0.100000 0.000000 0.000000
vn 0.100000 0.000000 0.000000
vn 0.100000 0.000000 0.000000
vn 0.100000 0.000000 0.000000
vn 0.100000 0.000000 0.000000
vn 0.100000 0.000000 0.000000
vn 0.100000 0.000000 0.000000
vn 0.100000 0.000000 0.000000
vn 0.100000 0.000000 0.000000
vn 0.100000 0.000000 0.000000
vn 0.100000 0.000000 0.000000
vn 0.000000 0.000000 -0.100000
vn 0.000000 0.000000 -0.100000
vn 0.000000 0.000000 -0.100000
vn 0.000000 0.000000 -0.100000
vn 0.000000 0.000000 -0.100000
vn 0.000000 0.000000 -0.100000
vn 0.000000 0.000000 -0.100000
vn 0.000000 0.000000 -0.100000
vn 0.000000 0.000000 -0.100000
vn 0.000000 0.000000 -0.100000
vn 0.000000 0.000000 -0.100000
vn 0.000000 0.000000 -0.100000
vn 0.000000 0.000000 -0.100000
vn 0.000000 0.000000 -0.100000
vn 0.000000 0.000000 -0.100000
vn 0.000000 0.000000 -0.100000
vn 0.000000 0.000000 -0.100000
vn 0.000000 0.000000 -0.100000
vn 0.000000 0.000000 -0.100000
vn 0.000000 0.000000 -0.100000
vn 0.000000 0.000000 -0.100000
vn 0.000000 0.000000 -0.100000
vn 0.000000 0.000000 -0.100000
vn 0.000000 0.000000 -0.100000
vn 0.000000 0.000000 -0.100000
vn 0.000000 0.000000 -0.100000
vn 0.000000 0.000000 -0.100000
vn 0.000000 0.000000 -0.100000
vn 0.000000 0.000000 -0.100000
vn 0.000000 0.000000 -0.100000
vn 0.000000 0.000000 -0.100000
vn 0.000000 0.000000 -0.100000
vn 0.000000 0.000000 -0.100000
vn 0.000000 0.000000 -0.100000
vn 0.000000 0.000000 -0.100000
vn 0.000000 0.000000 -0.100000
vn 0.000000 0.000000 -0.100000
vn 0.000000 0.000000 -0.100000
vn 0.000000 0.000000 -0.100000
vn 0.000000 0.000000 -0.100000
vn 0.000000 0.000000 -0.100000
vn 0.000000 0.000000 -0.100000
vn 0.000000 0.000000 -0.100000
vn 0.000000 0.000000 -0.100000
vn 0.000000 0.000000 -0.100000
vn 0.000000 0.000000 -0.100000
vn 0.000000 0.000000 -0.100000
vn 0.000000 0.000000 -0.100000
vn 0.000000 0.000000 -0.100000
vn 0.000000 0.000000 -0.100000
vn 0.000000 0.000000 -0.100000
vn 0.000000 0.000000 -0.100000
vn 0.000000 0.000000 -0.100000
vn 0.000000 0.000000 -0.100000
vn 0.000000 0.000000 -0.100000
vn 0.000000 0.000000 -0.100000
vn 0.083420 -0.055147 0.000000
vn 0.083420 -0.055147 0.000000
vn 0.083420 -0.055147 0.000000
vn 0.083420 -0.055147 0.000000
vn 0.000000 -0.100000 0.000000
vn 0.000000 -0.100000 0.000000
vn 0.000000 -0.100000 0.000000
vn 0.000000 -0.100000 0.000000
vn 0.000000 -0.100000 0.000000
vn 0.000000 -0.100000 0.000000
vn 0.000000 -0.100000 0.000000
vn 0.000000 -0.100000 0.000000
vn 0.000000 -0.100000 0.000000
vn 0.000000 -0.100000 0.000000
vn 0.000000 -0.100000 0.000000
vn 0.000000 -0.100000 0.000000
vn 0.000000 -0.100000 0.000000
vn 0.000000 -0.100000 0.000000
vn 0.000000 -0.100000 0.000000
vn 0.000000 -0.100000 0.000000
vn 0.000000 -0.100000 0.000000
vn 0.000000 -0.100000 0.000000
vn 0.000000 -0.100000 0.000000
vn 0.000000 -0.100000 0.000000
vn 0.000000 -0.100000 0.000000
vn 0.000000 -0.100000 0.000000
vn 0.000000 -0.100000 0.000000
vn 0.000000 -0.100000 0.000000
vn 0.083420 -0.055147 0.000000
vn 0.083420 -0.055147 0.000000
vn 0.083420 -0.055147 0.000000
vn 0.083420 -0.055147 0.000000
vn -0.083420 0.055147 -0.000000
vn -0.083420 0.055147 -0.000000
vn -0.083420 0.055147 -0.000000
vn -0.083420 0.055147 -0.000000
vn 0.083420 -0.055147 0.000000
vn 0.083420 -0.055147 0.000000
vn 0.083420 -0.055147 0.000000
vn 0.083420 -0.055147 0.000000
vn 0.083420 -0.055147 0.000000
vn 0.083420 -0.055147 0.000000
vn 0.083420 -0.055147 0.000000
vn 0.083420 -0.055147 0.000000
vn 0.083420 -0.055147 0.000000
vn 0.083420 -0.055147 0.000000
vn 0.083420 -0.055147 0.000000
vn 0.083420 -0.055147 0.000000
vn 0.000000 -0.100000 0.000000
vn 0.000000 -0.100000 0.000000
vn 0.000000 -0.100000 0.000000
vn 0.000000 -0.100000 0.000000
vn -0.100000 -0.000000 0.000000
vn -0.100000 -0.000000 0.000000
vn -0.100000 -0.000000 0.000000
vn -0.100000 -0.000000 0.000000
vn -0.100000 -0.000000 0.000000
vn -0.100000 -0.000000 0.000000
vn -0.100000 -0.000000 0.000000
vn -0.100000 -0.000000 0.000000
vn -0.100000 -0.000000 0.000000
vn -0.100000 -0.000000 0.000000
vn -0.100000 -0.000000 0.000000
vn -0.100000 -0.000000 0.000000
vn -0.100000 -0.000000 0.000000
vn -0.100000 -0.000000 0.000000
vn -0.100000 -0.000000 0.000000
vn -0.100000 -0.000000 0.000000
vn -0.100000 -0.000000 0.000000
vn -0.100000 -0.000000 0.000000
vn -0.100000 -0.000000 0.000000
vn -0.100000 -0.000000 0.000000
vn -0.100000 -0.000000 0.000000
vn -0.100000 -0.000000 0.000000
vn -0.100000 -0.000000 0.000000
vn -0.100000 -0.000000 0.000000
vn -0.083420 0.055147 -0.000000
vn -0.083420 0.055147 -0.000000
vn -0.083420 0.055147 -0.000000
vn -0.083420 0.055147 -0.000000
vn -0.083420 0.055147 -0.000000
vn -0.083420 0.055147 -0.000000
vn -0.083420 0.055147 -0.000000
vn -0.083420 0.055147 -0.000000
vn -0.083420 0.055147 -0.000000
vn -0.083420 0.055147 -0.000000
vn -0.083420 0.055147 -0.000000
vn -0.083420 0.055147 -0.000000
vn -0.083420 0.055147 -0.000000
vn -0.083420 0.055147 -0.000000
vn -0.083420 0.055147 -0.000000
vn -0.083420 0.055147 -0.000000
vn -0.083420 0.055147 -0.000000
vn -0.083420 0.055147 -0.000000
vn -0.083420 0.055147 -0.000000
vn -0.083420 0.055147 -0.000000
vn -0.083420 0.055147 -0.000000
vn -0.083420 0.055147 -0.000000
vn -0.083420 0.055147 -0.000000
vn -0.083420 0.055147 -0.000000
vn -0.100000 -0.000000 0.000000
vn -0.100000 -0.000000 0.000000
vn -0.100000 -0.000000 0.000000
vn -0.100000 -0.000000 0.000000
vn -0.100000 -0.000000 0.000000
vn -0.100000 -0.000000 0.000000
vn -0.100000 -0.000000 0.000000
vn -0.100000 -0.000000 0.000000
vn -0.000000 0.100000 0.000000
vn -0.000000 0.100000 0.000000
vn -0.000000 0.100000 0.000000
vn -0.000000 0.100000 0.000000
vn -0.000000 0.100000 0.000000
vn -0.000000 0.100000 0.000000
vn -0.000000 0.100000 0.000000
vn -0.000000 0.100000 0.000000
vn -0.000000 0.100000 0.000000
vn -0.000000 0.100000 0.000000
vn -0.000000 0.100000 0.000000
vn -0.000000 0.100000 0.000000
vn -0.000000 0.100000 0.000000
vn -0.000000 0.100000 0.000000
vn -0.000000 0.100000 0.000000
vn -0.000000 0.100000 0.000000
vn -0.000000 0.100000 0.000000
vn -0.000000 0.100000 0.000000
vn -0.000000 0.100000 0.000000
vn -0.000000 0.100000 0.000000
vn -0.000000 0.100000 0.000000
vn -0.000000 0.100000 0.000000
vn -0.000000 0.100000 0.000000
vn -0.000000 0.100000 0.000000
vn 0.083420 -0.055147 0.000000
vn 0.083420 -0.055147 0.000000
vn 0.083420 -0.055147 0.000000
vn 0.083420 -0.055147 0.000000
vn 0.083420 -0.055147 0.000000
vn 0.083420 -0.055147 0.000000
vn 0.083420 -0.055147 0.000000
vn 0.083420 -0.055147 0.000000
vn 0.083420 -0.055147 0.000000
vn 0.083420 -0.055147 0.000000
vn 0.083420 -0.055147 0.000000
vn 0.083420 -0.055147 0.000000
vn 0.083420 -0.055147 0.000000
vn 0.083420 -0.055147 0.000000
vn 0.083420 -0.055147 0.000000
vn 0.083420 -0.055147 0.000000
vn 0.083420 -0.055147 0.000000
vn 0.083420 -0.055147 0.000000
vn 0.083420 -0.055147 0.000000
vn 0.083420 -0.055147 0.000000
vn 0.083420 -0.055147 0.000000
vn 0.083420 -0.055147 0.000000
vn 0.083420 -0.055147 0.000000
vn 0.083420 -0.055147 0.000000
vn -0.000000 0.100000 0.000000
vn -0.000000 0.100000 0.000000
vn -0.000000 0.100000 0.000000
vn -0.000000 0.100000 0.000000
vn 0.083420 -0.055147 0.000000
vn 0.083420 -0.055147 0.000000
vn 0.083420 -0.055147 0.000000
vn 0.083420 -0.055147 0.000000
vn 0.100000 0.000000 0.000000
vn 0.100000 0.000000 0.000000
vn 0.100000 0.000000 0.000000
vn 0.100000 0.000000 0.000000
vn -0.083420 0.055147 -0.000000
vn -0.083420 0.055147 -0.000000
vn -0.083420 0.055147 -0.000000
vn -0.083420 0.055147 -0.000000
vn -0.083420 0.055147 -0.000000
vn -0.083420 0.055147 -0.000000
vn -0.083420 0.055147 -0.000000
vn -0.083420 0.055147 -0.000000
vn -0.100000 -0.000000 0.000000
vn -0.100000 -0.000000 0.000000
vn -0.100000 -0.000000 0.000000
vn -0.100000 -0.000000 0.000000
vn -0.099144 -0.013053 0.000000
vn -0.099144 -0.013053 0.000000
vn -0.096593 -0.025882 0.000000
vn -0.096593 -0.025882 0.000000
vn -0.092388 -0.038268 0.000000
vn -0.092388 -0.038268 0.000000
vn -0.086603 -0.050000 0.000000
vn -0.086603 -0.050000 0.000000
vn -0.079335 -0.060876 0.000000
vn -0.079335 -0.060876 0.000000
vn -0.070711 -0.070711 0.000000
vn -0.070711 -0.070711 0.000000
vn -0.060876 -0.079335 0.000000
vn -0.060876 -0.079335 0.000000
vn -0.050000 -0.086603 0.000000
vn -0.050000 -0.086603 0.000000
vn -0.038268 -0.092388 0.000000
vn -0.038268 -0.092388 0.000000
vn -0.025882 -0.096593 0.000000
vn -0.025882 -0.096593 0.000000
vn -0.013053 -0.099144 0.000000
vn -0.013053 -0.099144 0.000000
vn 0.000000 -0.100000 0.000000
vn 0.000000 -0.100000 0.000000
vn 0.000000 -0.100000 0.000000
vn 0.000000 -0.100000 0.000000
vn 0.013053 -0.099144 0.000000
vn 0.013053 -0.099144 0.000000
vn 0.025882 -0.096593 0.000000
vn 0.025882 -0.096593 0.000000
vn 0.038268 -0.092388 0.000000
vn 0.038268 -0.092388 0.000000
vn 0.050000 -0.086603 0.000000
vn 0.050000 -0.086603 0.000000
vn 0.060876 -0.079335 0.000000
vn 0.060876 -0.079335 0.000000
vn 0.070711 -0.070711 0.000000
vn 0.070711 -0.070711 0.000000
vn 0.079335 -0.060876 0.000000
vn 0.079335 -0.060876 0.000000
vn 0.086603 -0.050000 0.000000
vn 0.086603 -0.050000 0.000000
vn 0.092388 -0.038268 0.000000
vn 0.092388 -0.038268 0.000000
vn 0.096593 -0.025882 0.000000
vn 0.096593 -0.025882 0.000000
vn 0.099144 -0.013053 0.000000
vn 0.099144 -0.013053 0.000000
vn 0.100000 0.000000 0.000000
vn 0.100000 0.000000 0.000000
vn 0.100000 0.000000 0.000000
vn 0.100000 0.000000 0.000000
vn 0.083420 -0.055147 0.000000
vn 0.083420 -0.055147 0.000000
vn 0.083420 -0.055147 0.000000
vn 0.083420 -0.055147 0.000000
vn 0.083420 -0.055147 0.000000
vn 0.083420 -0.055147 0.000000
vn 0.083420 -0.055147 0.000000
vn 0.083420 -0.055147 0.000000
vn -0.083420 0.055147 -0.000000
vn -0.083420 0.055147 -0.000000
vn -0.083420 0.055147 -0.000000
vn -0.083420 0.055147 -0.000000
vn -0.083420 0.055147 -0.000000
vn -0.083420 0.055147 -0.000000
vn -0.083420 0.055147 -0.000000
vn -0.083420 0.055147 -0.000000
vn -0.083420 0.055147 -0.000000
vn -0.083420 0.055147 -0.000000
vn -0.083420 0.055147 -0.000000
vn -0.083420 0.055147 -0.000000
vn -0.083420 0.055147 -0.000000
vn -0.083420 0.055147 -0.000000
vn -0.083420 0.055147 -0.000000
vn -0.083420 0.055147 -0.000000
vn -0.083420 0.055147 -0.000000
vn -0.083420 0.055147 -0.000000
vn -0.083420 0.055147 -0.000000
vn -0.083420 0.055147 -0.000000
vn 0.099144 0.013053 0.000000
vn 0.099144 0.013053 0.000000
vn 0.096593 0.025882 0.000000
vn 0.096593 0.025882 0.000000
vn 0.092388 0.038268 0.000000
vn 0.092388 0.038268 0.000000
vn 0.086603 0.050000 0.000000
vn 0.086603 0.050000 0.000000
vn 0.079335 0.060876 0.000000
vn 0.079335 0.060876 0.000000
vn 0.070711 0.070711 0.000000
vn 0.070711 0.070711 0.000000
vn 0.060876 0.079335 0.000000
vn 0.060876 0.079335 0.000000
vn 0.050000 0.086603 0.000000
vn 0.050000 0.086603 0.000000
vn 0.038268 0.092388 0.000000
vn 0.038268 0.092388 0.000000
vn 0.025882 0.096593 0.000000
vn 0.025882 0.096593 0.000000
vn 0.013053 0.099144 0.000000
vn 0.013053 0.099144 0.000000
vn -0.000000 0.100000 -0.000000
vn -0.000000 0.100000 -0.000000
vn -0.000000 0.100000 -0.000000
vn -0.000000 0.100000 -0.000000
vn -0.013053 0.099144 -0.000000
vn -0.013053 0.099144 -0.000000
vn -0.025882 0.096593 -0.000000
vn -0.025882 0.096593 -0.000000
vn -0.038268 0.092388 -0.000000
vn -0.038268 0.092388 -0.000000
vn -0.050000 0.086603 -0.000000
vn -0.050000 0.086603 -0.000000
vn -0.060876 0.079335 -0.000000
vn -0.060876 0.079335 -0.000000
vn -0.070711 0.070711 -0.000000
vn -0.070711 0.070711 -0.000000
vn -0.079335 0.060876 -0.000000
vn -0.079335 0.060876 -0.000000
vn -0.086603 0.050000 -0.000000
vn -0.086603 0.050000 -0.000000
vn -0.092388 0.038268 -0.000000
vn -0.092388 0.038268 -0.000000
vn -0.096593 0.025882 -0.000000
vn -0.096593 0.025882 -0.000000
vn -0.099144 0.013053 -0.000000
vn -0.099144 0.013053 -0.000000
usemtl Stahl_-_satiniert
f 2/1/1 5/2/2 1/3/3
f 1/3/3 5/2/2 6/4/4
f 1/3/3 6/4/4 4/5/5
f 4/5/5 6/4/4 7/6/6
f 4/5/5 7/6/6 8/7/7
f 5/2/2 2/1/1 8/7/7
f 8/7/7 2/1/1 3/8/8
f 8/7/7 3/8/8 4/5/5
f 2/9/9 1/10/10 10/11/11
f 10/11/11 1/10/10 9/12/12
f 10/13/13 11/14/14 2/15/15
f 2/15/15 11/14/14 3/16/16
f 11/17/17 12/18/18 3/19/19
f 3/19/19 12/18/18 4/20/20
f 12/21/21 9/22/22 4/23/23
f 4/23/23 9/22/22 1/24/24
f 13/25/25 14/26/26 8/27/27
f 8/27/27 14/26/26 5/28/28
f 15/29/29 13/30/30 7/31/31
f 7/31/31 13/30/30 8/32/32
f 16/33/33 15/34/34 6/35/35
f 6/35/35 15/34/34 7/36/36
f 14/37/37 16/38/38 5/39/39
f 5/39/39 16/38/38 6/40/40
f 16/41/41 39/42/42 15/43/43
f 15/43/43 39/42/42 40/44/44
f 15/43/43 40/44/44 43/45/45
f 43/45/45 40/44/44 37/46/46
f 43/45/45 37/46/46 42/47/47
f 42/47/47 37/46/46 15/43/43
f 42/47/47 15/43/43 41/48/48
f 41/48/48 15/43/43 18/49/49
f 41/48/48 18/49/49 19/50/50
f 14/51/51 66/52/52 16/41/41
f 16/41/41 66/52/52 67/53/53
f 16/41/41 67/53/53 58/54/54
f 58/54/54 67/53/53 68/55/55
f 58/54/54 68/55/55 61/56/56
f 61/56/56 68/55/55 13/57/57
f 61/56/56 13/57/57 60/58/58
f 60/58/58 13/57/57 53/59/59
f 60/58/58 53/59/59 50/60/60
f 13/57/57 69/61/61 14/51/51
f 14/51/51 69/61/61 71/62/62
f 14/51/51 71/62/62 72/63/63
f 15/43/43 38/64/64 13/57/57
f 13/57/57 38/64/64 33/65/65
f 13/57/57 33/65/65 34/66/66
f 18/49/49 15/43/43 17/67/67
f 17/67/67 15/43/43 22/68/68
f 17/67/67 22/68/68 23/69/69
f 20/70/70 15/43/43 19/50/50
f 19/50/50 15/43/43 44/71/71
f 19/50/50 44/71/71 41/48/48
f 15/43/43 20/70/70 23/69/69
f 23/69/69 20/70/70 17/67/67
f 24/72/72 21/73/73 15/43/43
f 15/43/43 21/73/73 22/68/68
f 23/69/69 24/72/72 15/43/43
f 26/74/74 13/57/57 25/75/75
f 25/75/75 13/57/57 30/76/76
f 25/75/75 30/76/76 31/77/77
f 27/78/78 46/79/79 26/74/74
f 26/74/74 46/79/79 47/80/80
f 26/74/74 47/80/80 13/57/57
f 13/57/57 47/80/80 48/81/81
f 13/57/57 48/81/81 49/82/82
f 46/79/79 27/78/78 16/41/41
f 16/41/41 27/78/78 28/83/83
f 16/41/41 28/83/83 31/77/77
f 31/77/77 28/83/83 25/75/75
f 30/76/76 13/57/57 29/84/84
f 29/84/84 13/57/57 34/66/66
f 29/84/84 34/66/66 35/85/85
f 31/77/77 32/86/86 16/41/41
f 16/41/41 32/86/86 35/85/85
f 16/41/41 35/85/85 36/87/87
f 32/86/86 29/84/84 35/85/85
f 16/41/41 36/87/87 39/42/42
f 39/42/42 36/87/87 33/65/65
f 39/42/42 33/65/65 38/64/64
f 37/46/46 38/64/64 15/43/43
f 43/45/45 44/71/71 15/43/43
f 46/79/79 16/41/41 45/88/88
f 45/88/88 16/41/41 51/89/89
f 45/88/88 51/89/89 52/90/90
f 13/57/57 49/82/82 52/90/90
f 52/90/90 49/82/82 45/88/88
f 51/89/89 16/41/41 50/60/60
f 50/60/60 16/41/41 59/91/91
f 50/60/60 59/91/91 60/58/58
f 52/90/90 53/59/59 13/57/57
f 55/92/92 65/93/93 54/94/94
f 54/94/94 65/93/93 14/51/51
f 54/94/94 14/51/51 57/95/95
f 57/95/95 14/51/51 56/96/96
f 56/96/96 14/51/51 55/92/92
f 55/92/92 14/51/51 64/97/97
f 55/92/92 64/97/97 65/93/93
f 58/54/54 59/91/91 16/41/41
f 63/98/98 73/99/99 62/100/100
f 62/100/100 73/99/99 14/51/51
f 62/100/100 14/51/51 65/93/93
f 64/97/97 14/51/51 63/98/98
f 63/98/98 14/51/51 72/63/63
f 63/98/98 72/63/63 73/99/99
f 68/55/55 69/61/61 13/57/57
f 69/61/61 66/52/52 71/62/62
f 71/62/62 66/52/52 70/101/101
f 70/101/101 66/52/52 14/51/51
f 70/101/101 14/51/51 73/99/99
f 75/102/102 133/103/103 74/104/104
f 74/104/104 133/103/103 90/105/105
f 74/104/104 90/105/105 77/106/106
f 77/106/106 90/105/105 150/107/107
f 77/106/106 150/107/107 151/108/108
f 76/109/109 78/110/110 75/102/102
f 75/102/102 78/110/110 132/111/111
f 75/102/102 132/111/111 133/103/103
f 78/110/110 76/109/109 151/108/108
f 151/108/108 76/109/109 77/106/106
f 79/112/112 90/105/105 78/110/110
f 78/110/110 90/105/105 130/113/113
f 78/110/110 130/113/113 131/114/114
f 79/112/112 80/115/115 90/105/105
f 90/105/105 80/115/115 81/116/116
f 90/105/105 81/116/116 82/117/117
f 82/117/117 83/118/118 90/105/105
f 90/105/105 83/118/118 84/119/119
f 90/105/105 84/119/119 85/120/120
f 85/120/120 86/121/121 90/105/105
f 90/105/105 86/121/121 87/122/122
f 90/105/105 87/122/122 88/123/123
f 88/123/123 89/124/124 90/105/105
f 91/125/125 149/126/126 90/105/105
f 90/105/105 149/126/126 146/127/127
f 90/105/105 146/127/127 153/128/128
f 153/128/128 146/127/127 147/129/129
f 153/128/128 147/129/129 152/130/130
f 152/130/130 147/129/129 78/110/110
f 152/130/130 78/110/110 151/108/108
f 92/131/131 93/132/132 91/125/125
f 91/125/125 93/132/132 94/133/133
f 91/125/125 94/133/133 95/134/134
f 95/134/134 96/135/135 91/125/125
f 91/125/125 96/135/135 97/136/136
f 91/125/125 97/136/136 98/137/137
f 98/137/137 99/138/138 91/125/125
f 91/125/125 99/138/138 100/139/139
f 91/125/125 100/139/139 101/140/140
f 101/140/140 102/141/141 91/125/125
f 91/125/125 102/141/141 103/142/142
f 91/125/125 103/142/142 178/143/143
f 178/143/143 103/142/142 182/144/144
f 182/144/144 103/142/142 174/145/145
f 182/144/144 174/145/145 175/146/146
f 104/147/147 154/148/148 103/142/142
f 103/142/142 154/148/148 155/149/149
f 103/142/142 155/149/149 165/150/150
f 165/150/150 155/149/149 156/151/151
f 165/150/150 156/151/151 164/152/152
f 164/152/152 156/151/151 117/153/153
f 164/152/152 117/153/153 163/154/154
f 163/154/154 117/153/153 176/155/155
f 163/154/154 176/155/155 177/156/156
f 105/157/157 116/158/158 104/147/147
f 104/147/147 116/158/158 173/159/159
f 104/147/147 173/159/159 170/160/160
f 105/157/157 106/161/161 116/158/158
f 116/158/158 106/161/161 107/162/162
f 116/158/158 107/162/162 108/163/163
f 108/163/163 109/164/164 116/158/158
f 116/158/158 109/164/164 110/165/165
f 116/158/158 110/165/165 111/166/166
f 111/166/166 112/167/167 116/158/158
f 116/158/158 112/167/167 113/168/168
f 116/158/158 113/168/168 114/169/169
f 114/169/169 115/170/170 116/158/158
f 117/153/153 157/171/171 116/158/158
f 116/158/158 157/171/171 160/172/172
f 116/158/158 160/172/172 161/173/173
f 118/174/174 119/175/175 117/153/153
f 117/153/153 119/175/175 120/176/176
f 117/153/153 120/176/176 121/177/177
f 121/177/177 122/178/178 117/153/153
f 117/153/153 122/178/178 123/179/179
f 117/153/153 123/179/179 124/180/180
f 124/180/180 125/181/181 117/153/153
f 117/153/153 125/181/181 126/182/182
f 117/153/153 126/182/182 127/183/183
f 127/183/183 128/184/184 117/153/153
f 117/153/153 128/184/184 129/185/185
f 117/153/153 129/185/185 180/186/186
f 180/186/186 129/185/185 136/187/187
f 180/186/186 136/187/187 137/188/188
f 78/110/110 148/189/189 129/185/185
f 129/185/185 148/189/189 143/190/190
f 129/185/185 143/190/190 144/191/191
f 131/114/114 132/111/111 78/110/110
f 133/103/103 130/113/113 90/105/105
f 135/192/192 141/193/193 134/194/194
f 134/194/194 141/193/193 91/125/125
f 134/194/194 91/125/125 137/188/188
f 137/188/188 91/125/125 179/195/195
f 137/188/188 179/195/195 180/186/186
f 136/187/187 129/185/185 135/192/192
f 135/192/192 129/185/185 140/196/196
f 135/192/192 140/196/196 141/193/193
f 139/197/197 145/198/198 138/199/199
f 138/199/199 145/198/198 91/125/125
f 138/199/199 91/125/125 141/193/193
f 140/196/196 129/185/185 139/197/197
f 139/197/197 129/185/185 144/191/191
f 139/197/197 144/191/191 145/198/198
f 143/190/190 149/126/126 142/200/200
f 142/200/200 149/126/126 91/125/125
f 142/200/200 91/125/125 145/198/198
f 147/129/129 148/189/189 78/110/110
f 148/189/189 149/126/126 143/190/190
f 153/128/128 150/107/107 90/105/105
f 156/151/151 157/171/171 117/153/153
f 157/171/171 154/148/148 160/172/172
f 160/172/172 154/148/148 159/201/201
f 159/201/201 154/148/148 104/147/147
f 159/201/201 104/147/147 158/202/202
f 158/202/202 104/147/147 167/203/203
f 158/202/202 167/203/203 168/204/204
f 116/158/158 161/173/173 168/204/204
f 168/204/204 161/173/173 158/202/202
f 163/154/154 177/156/156 162/205/205
f 162/205/205 177/156/156 103/142/142
f 162/205/205 103/142/142 165/150/150
f 167/203/203 104/147/147 166/206/206
f 166/206/206 104/147/147 171/207/207
f 166/206/206 171/207/207 172/208/208
f 168/204/204 169/209/209 116/158/158
f 116/158/158 169/209/209 172/208/208
f 116/158/158 172/208/208 173/159/159
f 169/209/209 166/206/206 172/208/208
f 170/160/160 171/207/207 104/147/147
f 176/155/155 117/153/153 175/146/146
f 175/146/146 117/153/153 181/210/210
f 175/146/146 181/210/210 182/144/144
f 177/156/156 174/145/145 103/142/142
f 178/143/143 179/195/195 91/125/125
f 180/186/186 181/210/210 117/153/153
f 57/211/211 173/212/212 54/213/213
f 54/213/213 173/212/212 172/214/214
f 45/215/215 181/216/216 46/217/217
f 46/217/217 181/216/216 180/218/218
f 65/219/219 169/220/220 62/221/221
f 62/221/221 169/220/220 168/222/222
f 50/223/223 176/224/224 51/225/225
f 51/225/225 176/224/224 175/226/226
f 73/227/227 161/228/228 70/229/229
f 70/229/229 161/228/228 160/230/230
f 58/231/231 164/232/232 59/233/233
f 59/233/233 164/232/232 163/234/234
f 9/235/235 209/236/236 10/237/237
f 10/237/237 209/236/236 210/238/238
f 10/237/237 210/238/238 211/239/239
f 12/240/240 196/241/241 9/235/235
f 9/235/235 196/241/241 197/242/242
f 9/235/235 197/242/242 198/243/243
f 11/244/244 184/245/245 12/240/240
f 12/240/240 184/245/245 185/246/246
f 12/240/240 185/246/246 186/247/247
f 10/237/237 223/248/248 11/244/244
f 11/244/244 223/248/248 224/249/249
f 11/244/244 224/249/249 225/250/250
f 234/251/251 183/252/252 11/244/244
f 11/244/244 183/252/252 184/245/245
f 186/247/247 187/253/253 12/240/240
f 12/240/240 187/253/253 188/254/254
f 12/240/240 188/254/254 189/255/255
f 189/255/255 190/256/256 12/240/240
f 12/240/240 190/256/256 191/257/257
f 12/240/240 191/257/257 192/258/258
f 192/258/258 193/259/259 12/240/240
f 12/240/240 193/259/259 194/260/260
f 12/240/240 194/260/260 195/261/261
f 195/261/261 196/241/241 12/240/240
f 198/243/243 199/262/262 9/235/235
f 9/235/235 199/262/262 200/263/263
f 9/235/235 200/263/263 201/264/264
f 201/264/264 202/265/265 9/235/235
f 9/235/235 202/265/265 203/266/266
f 9/235/235 203/266/266 204/267/267
f 204/267/267 205/268/268 9/235/235
f 9/235/235 205/268/268 206/269/269
f 9/235/235 206/269/269 207/270/270
f 207/270/270 208/271/271 9/235/235
f 9/235/235 208/271/271 209/236/236
f 211/239/239 212/272/272 10/237/237
f 10/237/237 212/272/272 213/273/273
f 10/237/237 213/273/273 214/274/274
f 214/274/274 215/275/275 10/237/237
f 10/237/237 215/275/275 216/276/276
f 10/237/237 216/276/276 217/277/277
f 217/277/277 218/278/278 10/237/237
f 10/237/237 218/278/278 219/279/279
f 10/237/237 219/279/279 220/280/280
f 220/280/280 221/281/281 10/237/237
f 10/237/237 221/281/281 222/282/282
f 10/237/237 222/282/282 223/248/248
f 225/250/250 226/283/283 11/244/244
f 11/244/244 226/283/283 227/284/284
f 11/244/244 227/284/284 228/285/285
f 228/285/285 229/286/286 11/244/244
f 11/244/244 229/286/286 230/287/287
f 11/244/244 230/287/287 231/288/288
f 231/288/288 232/289/289 11/244/244
f 11/244/244 232/289/289 233/290/290
f 11/244/244 233/290/290 234/251/251
f 170/291/291 173/292/292 56/293/293
f 56/293/293 173/292/292 57/294/294
f 158/295/295 72/296/296 159/297/297
f 159/297/297 72/296/296 71/298/298
f 154/299/299 69/300/300 155/301/301
f 155/301/301 69/300/300 68/302/302
f 60/303/303 162/304/304 61/305/305
f 61/305/305 162/304/304 165/306/306
f 52/307/307 174/308/308 53/309/309
f 53/309/309 174/308/308 177/310/310
f 166/311/311 64/312/312 167/313/313
f 167/313/313 64/312/312 63/314/314
f 48/315/315 178/316/316 49/317/317
f 49/317/317 178/316/316 182/318/318
f 182/319/319 181/320/320 49/321/321
f 49/321/321 181/320/320 45/322/322
f 63/323/323 62/324/324 167/325/325
f 167/325/325 62/324/324 168/326/326
f 177/327/327 176/328/328 53/329/329
f 53/329/329 176/328/328 50/330/330
f 165/331/331 164/332/332 61/333/333
f 61/333/333 164/332/332 58/334/334
f 154/335/335 157/336/336 69/337/337
f 69/337/337 157/336/336 66/338/338
f 55/339/339 171/340/340 56/341/341
f 56/341/341 171/340/340 170/342/342
f 178/343/343 48/344/344 179/345/345
f 179/345/345 48/344/344 47/346/346
f 25/347/347 134/348/348 26/349/349
f 26/349/349 134/348/348 137/350/350
f 29/351/351 138/352/352 30/353/353
f 30/353/353 138/352/352 141/354/354
f 33/355/355 142/356/356 34/357/357
f 34/357/357 142/356/356 145/358/358
f 37/359/359 146/360/360 38/361/361
f 38/361/361 146/360/360 149/362/362
f 41/363/363 150/364/364 42/365/365
f 42/365/365 150/364/364 153/366/366
f 41/367/367 44/368/368 150/369/369
f 150/369/369 44/368/368 151/370/370
f 37/371/371 40/372/372 146/373/373
f 146/373/373 40/372/372 147/374/374
f 33/375/375 36/376/376 142/377/377
f 142/377/377 36/376/376 143/378/378
f 29/379/379 32/380/380 138/381/381
f 138/381/381 32/380/380 139/382/382
f 25/383/383 28/384/384 134/385/385
f 134/385/385 28/384/384 135/386/386
f 47/387/387 46/388/388 179/389/389
f 179/389/389 46/388/388 180/390/390
f 77/391/391 18/392/392 74/393/393
f 74/393/393 18/392/392 17/394/394
f 133/395/395 22/396/396 130/397/397
f 130/397/397 22/396/396 21/398/398
f 23/399/399 132/400/400 24/401/401
f 24/401/401 132/400/400 131/402/402
f 19/403/403 76/404/404 20/405/405
f 20/405/405 76/404/404 75/406/406
f 43/407/407 152/408/408 44/409/409
f 44/409/409 152/408/408 151/410/410
f 39/411/411 148/412/412 40/413/413
f 40/413/413 148/412/412 147/414/414
f 35/415/415 144/416/416 36/417/417
f 36/417/417 144/416/416 143/418/418
f 31/419/419 140/420/420 32/421/421
f 32/421/421 140/420/420 139/422/422
f 141/423/423 140/424/424 30/425/425
f 30/425/425 140/424/424 31/426/426
f 145/427/427 144/428/428 34/429/429
f 34/429/429 144/428/428 35/430/430
f 149/431/431 148/432/432 38/433/433
f 38/433/433 148/432/432 39/434/434
f 153/435/435 152/436/436 42/437/437
f 42/437/437 152/436/436 43/438/438
f 77/439/439 76/440/440 18/441/441
f 18/441/441 76/440/440 19/442/442
f 133/443/443 132/444/444 22/445/445
f 22/445/445 132/444/444 23/446/446
f 27/447/447 136/448/448 28/449/449
f 28/449/449 136/448/448 135/450/450
f 137/451/451 136/452/452 26/453/453
f 26/453/453 136/452/452 27/454/454
f 66/455/455 157/456/456 67/457/457
f 67/457/457 157/456/456 156/458/458
f 71/459/459 70/460/460 159/461/461
f 159/461/461 70/460/460 160/462/462
f 55/463/463 54/464/464 171/465/465
f 171/465/465 54/464/464 172/466/466
f 210/467/467 209/468/468 116/469/469
f 116/469/469 209/468/468 117/470/470
f 117/471/470 209/472/468 118/473/471
f 118/473/471 209/472/468 208/474/472
f 118/473/471 208/474/472 119/475/473
f 119/475/473 208/474/472 207/476/474
f 119/475/473 207/476/474 120/477/475
f 120/477/475 207/476/474 206/478/476
f 120/477/475 206/478/476 121/479/477
f 121/479/477 206/478/476 205/480/478
f 121/479/477 205/480/478 122/481/479
f 122/481/479 205/480/478 204/482/480
f 122/481/479 204/482/480 123/483/481
f 123/483/481 204/482/480 203/484/482
f 123/483/481 203/484/482 124/485/483
f 124/485/483 203/484/482 202/486/484
f 124/485/483 202/486/484 125/487/485
f 125/487/485 202/486/484 201/488/486
f 125/487/485 201/488/486 126/489/487
f 126/489/487 201/488/486 200/490/488
f 126/489/487 200/490/488 127/491/489
f 127/491/489 200/490/488 199/492/490
f 127/491/489 199/492/490 128/493/491
f 128/493/491 199/492/490 198/494/492
f 128/493/491 198/494/492 129/495/493
f 129/495/493 198/494/492 197/496/494
f 197/497/494 196/498/495 129/499/493
f 129/499/493 196/498/495 78/500/496
f 78/501/496 196/502/495 79/503/497
f 79/503/497 196/502/495 195/504/498
f 79/503/497 195/504/498 80/505/499
f 80/505/499 195/504/498 194/506/500
f 80/505/499 194/506/500 81/507/501
f 81/507/501 194/506/500 193/508/502
f 81/507/501 193/508/502 82/509/503
f 82/509/503 193/508/502 192/510/504
f 82/509/503 192/510/504 83/511/505
f 83/511/505 192/510/504 191/512/506
f 83/511/505 191/512/506 84/513/507
f 84/513/507 191/512/506 190/514/508
f 84/513/507 190/514/508 85/515/509
f 85/515/509 190/514/508 189/516/510
f 85/515/509 189/516/510 86/517/511
f 86/517/511 189/516/510 188/518/512
f 86/517/511 188/518/512 87/519/513
f 87/519/513 188/518/512 187/520/514
f 87/519/513 187/520/514 88/521/515
f 88/521/515 187/520/514 186/522/516
f 88/521/515 186/522/516 89/523/517
f 89/523/517 186/522/516 185/524/518
f 89/523/517 185/524/518 90/525/519
f 90/525/519 185/524/518 184/526/520
f 184/527/520 183/528/521 90/529/519
f 90/529/519 183/528/521 91/530/522
f 166/531/523 169/532/524 64/533/525
f 64/533/525 169/532/524 65/534/526
f 158/535/527 161/536/528 72/537/529
f 72/537/529 161/536/528 73/538/530
f 60/539/531 59/540/532 162/541/533
f 162/541/533 59/540/532 163/542/534
f 68/543/535 67/544/536 155/545/537
f 155/545/537 67/544/536 156/546/538
f 52/547/539 51/548/540 174/549/541
f 174/549/541 51/548/540 175/550/542
f 17/551/543 20/552/544 74/553/545
f 74/553/545 20/552/544 75/554/546
f 21/555/547 24/556/548 130/557/549
f 130/557/549 24/556/548 131/558/550
f 91/559/522 183/560/521 92/561/551
f 92/561/551 183/560/521 234/562/552
f 92/561/551 234/562/552 93/563/553
f 93/563/553 234/562/552 233/564/554
f 93/563/553 233/564/554 94/565/555
f 94/565/555 233/564/554 232/566/556
f 94/565/555 232/566/556 95/567/557
f 95/567/557 232/566/556 231/568/558
f 95/567/557 231/568/558 96/569/559
f 96/569/559 231/568/558 230/570/560
f 96/569/559 230/570/560 97/571/561
f 97/571/561 230/570/560 229/572/562
f 97/571/561 229/572/562 98/573/563
f 98/573/563 229/572/562 228/574/564
f 98/573/563 228/574/564 99/575/565
f 99/575/565 228/574/564 227/576/566
f 99/575/565 227/576/566 100/577/567
f 100/577/567 227/576/566 226/578/568
f 100/577/567 226/578/568 101/579/569
f 101/579/569 226/578/568 225/580/570
f 101/579/569 225/580/570 102/581/571
f 102/581/571 225/580/570 224/582/572
f 102/581/571 224/582/572 103/583/573
f 103/583/573 224/582/572 223/584/574
f 104/585/575 222/586/576 105/587/577
f 105/587/577 222/586/576 221/588/578
f 105/587/577 221/588/578 106/589/579
f 106/589/579 221/588/578 220/590/580
f 106/589/579 220/590/580 107/591/581
f 107/591/581 220/590/580 219/592/582
f 107/591/581 219/592/582 108/593/583
f 108/593/583 219/592/582 218/594/584
f 108/593/583 218/594/584 109/595/585
f 109/595/585 218/594/584 217/596/586
f 109/595/585 217/596/586 110/597/587
f 110/597/587 217/596/586 216/598/588
f 110/597/587 216/598/588 111/599/589
f 111/599/589 216/598/588 215/600/590
f 111/599/589 215/600/590 112/601/591
f 112/601/591 215/600/590 214/602/592
f 112/601/591 214/602/592 113/603/593
f 113/603/593 214/602/592 213/604/594
f 113/603/593 213/604/594 114/605/595
f 114/605/595 213/604/594 212/606/596
f 114/605/595 212/606/596 115/607/597
f 115/607/597 212/606/596 211/608/598
f 115/607/597 211/608/598 116/609/469
f 116/609/469 211/608/598 210/610/467
f 223/611/574 222/612/576 103/613/573
f 103/613/573 222/612/576 104/614/575
# 234 vertices
# 614 texture params
# 598 normals
# 520 facets

# 1 groups
